<svg width="58" height="27" viewBox="0 0 58 27" fill="none" xmlns="http://www.w3.org/2000/svg">
<path d="M48.7052 5.79883C48.8579 5.85468 48.8579 5.85468 49.0136 5.91166C49.6957 6.12249 50.3665 6.17413 51.0775 6.18527C51.2274 6.18869 51.3772 6.1921 51.5317 6.19562C51.8429 6.20187 52.1541 6.2072 52.4653 6.2116C54.4267 6.26023 54.4267 6.26023 55.1968 6.96474C55.6602 7.70897 55.7216 8.50077 55.7534 9.35675C55.7903 10.5628 55.7903 10.5628 56.1671 11.6961C55.3728 12.133 54.5785 12.5699 53.7601 13.02C53.9611 13.1615 54.1622 13.303 54.3693 13.4487C55.2866 14.1208 56.1274 14.7571 56.4078 15.9085C56.5426 17.1615 56.4458 18.2889 55.7167 19.3399C54.9616 20.2475 53.9991 20.8959 53.0379 21.565C52.7992 21.7322 52.5609 21.9002 52.3233 22.069C52.2279 22.1353 52.1325 22.2015 52.0342 22.2698C51.715 22.4987 51.715 22.4987 51.5671 22.7604C51.2775 23.1645 50.9959 23.4388 50.4955 23.5449C49.6833 23.6307 48.866 23.6009 48.0508 23.5847C47.7851 23.5829 47.5193 23.5815 47.2535 23.5806C46.5562 23.5769 45.8591 23.5675 45.1618 23.5568C44.4495 23.5469 43.7371 23.5425 43.0247 23.5377C41.6285 23.5274 40.2324 23.511 38.8363 23.4907C39.194 23.1088 39.6051 22.8971 40.0676 22.6637C40.1529 22.62 40.2383 22.5762 40.3263 22.5311C40.599 22.3915 40.8723 22.2528 41.1456 22.1141C41.3272 22.0214 41.5087 21.9285 41.6902 21.8356C42.5925 21.3743 42.5925 21.3743 42.9356 21.2034C43.0935 21.1224 43.2493 21.0371 43.4029 20.9482C44.0322 20.5962 44.5381 20.537 45.2526 20.5552C45.4069 20.5562 45.4069 20.5562 45.5642 20.5573C45.8892 20.5599 46.214 20.566 46.5389 20.5721C46.7606 20.5745 46.9824 20.5767 47.2041 20.5787C47.7447 20.5836 48.285 20.593 48.8256 20.6022C48.766 19.0533 48.766 19.0533 48.7052 17.473C48.5017 17.6021 48.2982 17.7312 48.0884 17.8642C46.2101 19.0253 44.2381 20.0208 42.2676 21.0139C42.0461 21.1256 41.8247 21.2376 41.6034 21.3499C41.2902 21.5087 40.9764 21.6661 40.6623 21.8231C40.5188 21.8962 40.5188 21.8962 40.3724 21.9707C40.1447 22.0836 39.9121 22.1864 39.6788 22.2871C39.5994 22.2474 39.5199 22.2077 39.4381 22.1668C39.6444 21.6957 39.9316 21.4303 40.3102 21.0926C40.8949 20.401 40.9321 19.7313 40.9049 18.8646C40.9033 18.7651 40.9016 18.6656 40.8999 18.563C40.8957 18.32 40.8893 18.077 40.8823 17.8341C40.4358 18.163 40.1386 18.4834 39.8368 18.9474C39.7099 19.142 39.5784 19.3339 39.4381 19.519C39.3587 19.519 39.2792 19.519 39.1974 19.519C39.0234 19.3338 39.0234 19.3338 38.8213 19.0828C38.3971 18.5809 37.9323 18.2045 37.3921 17.8341C37.5643 17.4259 37.7737 17.2037 38.1142 16.9239C38.5115 16.5961 38.7942 16.3503 38.904 15.8257C38.801 15.2192 38.4341 14.8763 37.9939 14.4642C37.6665 14.2287 37.6665 14.2287 37.3921 14.1032C37.5614 13.7046 37.7555 13.4924 38.0916 13.2231C38.5524 12.8353 38.8688 12.4399 39.1974 11.9368C39.2768 12.0162 39.3562 12.0957 39.4381 12.1775C39.5193 12.2585 39.5193 12.2585 39.6022 12.3411C39.7504 12.4897 39.8979 12.639 40.045 12.7887C40.1302 12.8749 40.2154 12.9612 40.3031 13.0501C40.3843 13.1326 40.4654 13.2151 40.549 13.3002C40.7509 13.5104 40.7509 13.5104 41.0027 13.6218C41.0499 12.4894 41.0499 12.4894 40.7333 11.4371C40.513 11.2473 40.2955 11.113 40.0398 10.974C39.8135 10.8346 39.5879 10.6942 39.3629 10.5528C39.1935 10.4476 39.1935 10.4476 39.0206 10.3403C38.5167 9.99501 38.19 9.63665 37.9939 9.04835C37.8874 8.1507 37.9322 7.47231 38.4945 6.74331C38.9644 6.27148 39.4324 6.07604 40.085 5.97936C41.0472 6.11208 41.7181 6.48015 42.4469 7.11519C43.185 7.75761 43.9222 8.39395 44.9517 8.34128C45.4712 8.24272 45.7529 8.0463 46.0575 7.60412C46.1203 7.21156 46.1277 6.99905 45.9221 6.65634C45.6025 6.46459 45.3392 6.49662 44.9743 6.52094C44.9743 6.67981 44.9743 6.83868 44.9743 7.00236C45.1332 7.04207 45.292 7.08179 45.4557 7.12271C45.416 7.32129 45.3763 7.51987 45.3354 7.72447C44.5717 7.88296 44.5717 7.88296 44.2597 7.73199C44.0574 7.33918 44.0673 6.94783 44.1318 6.52094C44.3416 6.13147 44.4293 6.06072 44.854 5.91918C45.6762 5.83831 45.6762 5.83831 46.0359 6.04518C46.2967 6.2594 46.5073 6.45773 46.6592 6.76165C46.7054 7.31561 46.7134 7.61191 46.4712 8.11562C46.0359 8.60676 45.6664 8.87957 45.0204 8.97407C44.0271 9.01534 43.3247 8.7167 42.5673 8.08553C42.4928 8.30893 42.4928 8.30893 42.4168 8.53685C42.251 8.96852 42.1187 9.26361 41.7248 9.52976C41.1576 9.66699 40.9001 9.70383 40.3558 9.49215C40.0398 9.28906 40.0398 9.28906 39.7991 9.04835C39.731 8.18941 39.731 8.18941 39.9571 7.84482C40.1602 7.72447 40.1602 7.72447 40.5213 7.72447C40.561 8.00249 40.6007 8.2805 40.6416 8.56694C41.0599 8.50198 41.0599 8.50198 41.4841 8.32623C41.6689 7.97203 41.7283 7.73076 41.7173 7.33333C41.6174 7.10166 41.6174 7.10166 41.3637 6.98731C41.2446 6.95256 41.1254 6.91781 41.0027 6.882C40.9184 6.85547 40.8342 6.82894 40.7474 6.80161C40.2633 6.66691 39.9999 6.61448 39.5133 6.77669C39.076 7.08902 38.8853 7.33698 38.716 7.84482C38.6532 8.38532 38.668 8.81459 38.8815 9.31914C39.7873 10.2681 41.0762 10.4793 42.3416 10.5227C44.2091 10.4022 45.9338 9.54382 47.186 8.14059C47.7962 7.41764 48.3289 6.67127 48.7052 5.79883ZM47.6221 9.28906C47.6221 11.8706 47.6221 14.4522 47.6221 17.112C48.3158 16.8996 48.3158 16.8996 48.8256 16.6306C48.8256 14.2079 48.8256 11.7852 48.8256 9.28906C48.4284 9.28906 48.0313 9.28906 47.6221 9.28906ZM49.4274 9.28906C49.4274 11.0763 49.4274 12.8635 49.4274 14.7049C49.7451 14.5063 50.0628 14.3078 50.3902 14.1032C50.4803 13.6824 50.5045 13.4089 50.4842 12.9913C50.4828 12.8853 50.4815 12.7793 50.4801 12.6701C50.4747 12.3326 50.4626 11.9958 50.4504 11.6585C50.4455 11.4293 50.4411 11.2001 50.4372 10.9709C50.4266 10.4101 50.41 9.84967 50.3902 9.28906C50.0725 9.28906 49.7547 9.28906 49.4274 9.28906ZM50.9919 9.28906C50.9919 10.7983 50.9919 12.3075 50.9919 13.8625C51.9159 13.4177 51.9159 13.4177 52.7972 12.8996C52.8815 12.388 52.8585 11.8679 52.8574 11.3501C52.8608 11.206 52.8642 11.0618 52.8678 10.9133C52.8681 10.7748 52.8684 10.6363 52.8687 10.4935C52.8695 10.3665 52.8704 10.2394 52.8713 10.1085C52.8203 9.75565 52.8203 9.75565 52.5671 9.48457C52.0879 9.19566 52.0879 9.19566 50.9919 9.28906ZM44.0115 10.8536C44.0115 13.5941 44.0115 16.3345 44.0115 19.158C44.6708 18.998 44.6708 18.998 44.854 18.7969C44.8653 18.5422 44.8681 18.287 44.8676 18.032C44.8676 17.9522 44.8677 17.8723 44.8677 17.7901C44.8676 17.525 44.8667 17.26 44.8657 16.9949C44.8655 16.8116 44.8653 16.6283 44.8652 16.445C44.8647 15.9616 44.8636 15.4782 44.8622 14.9949C44.861 14.502 44.8604 14.0091 44.8598 13.5162C44.8585 12.5484 44.8565 11.5807 44.854 10.6129C44.5425 10.598 44.5425 10.598 44.0115 10.8536ZM40.2881 14.4793C40.1803 14.5714 40.0724 14.6636 39.9613 14.7585C39.6445 15.1033 39.5136 15.3261 39.4381 15.7881C39.5722 16.0947 39.5722 16.0947 39.8142 16.3523C39.889 16.4421 39.9637 16.5319 40.0408 16.6245C40.2688 16.8592 40.4881 17.0534 40.762 17.2323C40.8414 17.2323 40.9208 17.2323 41.0027 17.2323C41.0027 16.16 41.0027 15.0876 41.0027 13.9828C40.7392 13.9828 40.4705 14.3207 40.2881 14.4793ZM49.4274 15.1863C49.4274 15.5438 49.4274 15.9012 49.4274 16.2695C49.8983 16.1125 50.1944 15.9338 50.5105 15.5474C50.5105 15.4282 50.5105 15.3091 50.5105 15.1863C50.1531 15.1863 49.7956 15.1863 49.4274 15.1863ZM51.1123 15.3067C51.1123 17.0542 51.1123 18.8017 51.1123 20.6022C51.8669 20.6022 52.6215 20.6022 53.399 20.6022C53.908 19.502 54.2618 18.4268 53.8729 17.2173C53.4852 16.3265 52.8677 15.7498 51.9802 15.3782C51.6631 15.2807 51.6631 15.2807 51.1123 15.3067ZM49.4274 16.9916C49.4274 18.1831 49.4274 19.3746 49.4274 20.6022C49.7451 20.6022 50.0628 20.6022 50.3902 20.6022C50.3902 19.2519 50.3902 17.9015 50.3902 16.5102C50.0314 16.5102 49.7389 16.8136 49.4274 16.9916Z" fill="black"/>
<path d="M33.9693 6.98735C34.8929 7.94018 35.7069 9.51508 35.7069 10.8537C34.9125 10.8537 34.1182 10.8537 33.2998 10.8537C33.2104 10.6303 33.1211 10.4069 33.029 10.1767C32.5353 9.00169 31.8853 8.13631 30.7117 7.58958C28.9739 6.97765 27.3241 6.98612 25.5972 7.60415C24.1729 8.31534 23.1877 9.64847 22.5884 11.0944C21.7342 13.6676 21.8976 16.59 23.0698 19.0377C23.7717 20.232 24.8442 21.0718 26.168 21.4546C27.8458 21.8562 29.6498 21.5701 31.1259 20.6925C32.7689 19.5562 33.1485 18.2297 33.5405 16.2695C30.6214 16.21 30.6214 16.21 27.6432 16.1492C27.6432 15.4343 27.6432 14.7194 27.6432 13.9828C30.4234 13.9828 33.2035 13.9828 36.0679 13.9828C36.0679 17.1204 36.0679 20.258 36.0679 23.4907C35.5119 23.4907 34.9559 23.4907 34.383 23.4907C34.1056 22.7775 33.8732 22.0594 33.6609 21.3244C33.5814 21.3244 33.502 21.3244 33.4202 21.3244C33.2769 21.4827 33.1401 21.6468 33.0064 21.8133C31.9426 23.0256 30.4664 23.7403 28.8622 23.8824C26.5225 24.0011 24.3586 23.7158 22.5358 22.1142C22.3505 21.9334 22.1672 21.7505 21.9866 21.5651C21.9117 21.494 21.8368 21.423 21.7596 21.3498C19.7531 19.3027 19.5197 16.2351 19.5457 13.5414C19.5848 12.0108 19.9335 10.6429 20.6628 9.28909C20.7144 9.18965 20.7661 9.0902 20.8193 8.98774C21.915 7.01545 23.6399 5.73533 25.7853 5.10684C28.6571 4.39695 31.7518 4.99045 33.9693 6.98735Z" fill="black"/>
<path d="M14.7656 5.19678C15.56 5.19678 16.3543 5.19678 17.1727 5.19678C17.1811 7.0078 17.1875 8.81882 17.1914 10.6299C17.1933 11.4709 17.1958 12.3119 17.1999 13.1529C17.2039 13.9653 17.206 14.7776 17.207 15.59C17.2076 15.8992 17.2089 16.2084 17.2109 16.5176C17.2135 16.9522 17.2139 17.3868 17.2137 17.8215C17.215 17.9479 17.2163 18.0744 17.2176 18.2047C17.211 19.8207 16.7789 21.4771 15.6081 22.6479C14.1164 23.872 12.4144 24.0278 10.5533 23.8514C9.16647 23.5935 8.11913 22.822 7.30378 21.6851C6.5392 20.3036 6.44376 18.897 6.46131 17.3524C7.25564 17.3524 8.04997 17.3524 8.86837 17.3524C8.89815 17.7049 8.92794 18.0574 8.95863 18.4205C9.05775 19.4269 9.15244 20.3815 9.87632 21.1435C10.8381 21.6931 11.956 21.7024 13.0299 21.5088C13.6013 21.3245 13.9964 21.001 14.2842 20.4816C14.6379 19.6101 14.6986 18.7801 14.6973 17.8488C14.6986 17.7113 14.6998 17.5738 14.701 17.4321C14.7047 16.9815 14.7058 16.5309 14.7069 16.0802C14.7089 15.7662 14.7111 15.4523 14.7134 15.1383C14.7187 14.3988 14.7221 13.6593 14.7249 12.9198C14.7282 12.0772 14.7335 11.2346 14.7389 10.3919C14.75 8.66023 14.7586 6.92851 14.7656 5.19678Z" fill="black"/>
<path d="M1.52686 5.19678C2.32118 5.19678 3.11551 5.19678 3.93391 5.19678C3.93391 11.2337 3.93391 17.2706 3.93391 23.4904C3.13958 23.4904 2.34525 23.4904 1.52686 23.4904C1.52686 17.4535 1.52686 11.4166 1.52686 5.19678Z" fill="black"/>
<path d="M38.5686 12.0864C38.6431 12.161 38.7176 12.2355 38.7944 12.3123C38.8453 12.363 38.8961 12.4136 38.9484 12.4658C39.0875 12.6053 39.2259 12.7454 39.364 12.8858C39.4439 12.9668 39.5238 13.0477 39.6062 13.1311C39.6823 13.2085 39.7585 13.286 39.8369 13.3658C40.0264 13.563 40.0264 13.563 40.2626 13.6675C40.2626 13.3321 40.2626 12.9967 40.2626 12.6511C40.2999 12.6511 40.3372 12.6511 40.3756 12.6511C40.3756 13.0238 40.3756 13.3965 40.3756 13.7805C40.301 13.7805 40.2265 13.7805 40.1497 13.7805C40.1402 13.8472 40.1308 13.9138 40.121 13.9825C40.0124 14.3045 39.8592 14.4076 39.5921 14.6134C39.3125 14.8525 39.1219 15.0396 38.9144 15.3475C38.9042 15.8571 39.1475 16.1003 39.4619 16.4852C39.729 16.7654 39.729 16.7654 40.2626 17.0557C40.2626 16.0494 40.2626 15.0431 40.2626 14.0064C40.2999 14.0064 40.3372 14.0064 40.3756 14.0064C40.3756 15.6462 40.3756 17.2861 40.3756 18.9756C40.3383 18.9756 40.301 18.9756 40.2626 18.9756C40.2254 18.5284 40.1881 18.0811 40.1497 17.6203C39.6139 17.9776 39.3152 18.44 38.9696 18.9703C38.8829 19.0847 38.8829 19.0847 38.7944 19.2015C38.7199 19.2015 38.6454 19.2015 38.5686 19.2015C38.4053 19.0277 38.4053 19.0277 38.2156 18.7921C37.8176 18.3211 37.3814 17.9679 36.8745 17.6203C37.0361 17.2373 37.2326 17.0288 37.5521 16.7663C37.9249 16.4586 38.1903 16.228 38.2933 15.7357C38.1966 15.1666 37.8523 14.8448 37.4392 14.4581C37.132 14.2371 37.132 14.2371 36.8745 14.1193C37.0334 13.7453 37.2155 13.5462 37.531 13.2934C37.9633 12.9296 38.2603 12.5585 38.5686 12.0864Z" fill="black"/>
<path d="M44.78 6.4394C45.1783 6.66077 45.424 6.90323 45.5706 7.34289C45.3729 7.4276 45.3729 7.4276 45.1188 7.45583C45.0489 7.38362 44.9791 7.31141 44.9071 7.23701C44.6786 6.96562 44.6786 6.96562 44.3 6.97585C44.1975 6.98516 44.095 6.99448 43.9894 7.00408C43.9894 7.15316 43.9894 7.30224 43.9894 7.45583C44.1385 7.4931 44.2876 7.53037 44.4412 7.56877C44.4039 7.75511 44.3667 7.94146 44.3283 8.13345C43.6117 8.28218 43.6117 8.28218 43.3189 8.14051C43.129 7.77191 43.1383 7.40467 43.1989 7.00408C43.5308 6.38775 44.1257 6.32706 44.78 6.4394Z" fill="black"/>
</svg>
