<svg width="116" height="28" viewBox="0 0 116 28" fill="none" xmlns="http://www.w3.org/2000/svg">
<g clip-path="url(#clip0_434_126137)">
<path d="M12.3427 14.8877V12.5103C12.3427 10.3287 12.1189 7.95131 11.7554 6.44092H17.4332C17.0696 7.95117 16.8179 9.99309 16.8179 12.1747V14.1325C16.8179 16.1462 17.601 17.3492 19.0276 17.3492C20.5099 17.3492 21.5169 15.8947 21.5169 13.9649V12.1468C21.5169 10.5806 21.3212 7.72766 20.9016 6.44107H26.6073C26.2158 7.95131 25.992 9.79747 25.992 11.9791V14.5521C25.992 16.7058 26.2158 18.8874 26.6073 20.4257H20.9016C21.349 19.5026 21.5169 18.6915 21.5169 17.4049V17.1533H21.2651C20.6219 19.4746 19.2514 20.7613 17.0417 20.7613C14.049 20.7613 12.3427 18.8314 12.3427 14.8877Z" fill="black"/>
<path d="M29.3196 14.1045V10.7482C29.3196 9.60163 29.2636 7.0283 29.1518 6.441C30.4664 7.05633 32.732 7.0283 33.9625 6.441C33.8507 7.0283 33.7946 9.60163 33.7946 10.7482V14.1045C33.7946 16.2583 34.0184 18.8874 34.4099 20.4258H28.7041C29.0677 18.8874 29.3196 16.2583 29.3196 14.1045ZM29.0679 2.38535C29.0679 1.07074 30.0188 0.0078125 31.5292 0.0078125C33.0675 0.0078125 34.0186 1.07074 34.0186 2.3852C34.0186 3.69966 33.0676 4.73471 31.5292 4.73471C30.0188 4.73471 29.0679 3.69996 29.0679 2.38535Z" fill="black"/>
<path d="M35.9487 13.4336C35.9487 9.15412 38.2422 6.10547 42.9411 6.10547C44.004 6.10547 45.822 6.38517 46.689 6.83277L46.5491 10.5247C45.9338 10.0213 44.759 9.54564 43.5843 9.54564C41.4866 9.54564 40.228 10.9441 40.228 13.4336C40.228 15.9231 41.5705 17.3213 43.7802 17.3213C44.871 17.3213 46.1575 16.9578 47.0526 16.2585V20.0064C46.1297 20.4539 44.2557 20.7616 42.9132 20.7616C38.1863 20.7616 35.9487 17.7409 35.9487 13.4336Z" fill="black"/>
<path d="M49.3471 25.8518V21.908C50.6897 22.9431 53.0391 23.5863 54.941 23.5863C57.4304 23.5863 59.1644 22.3556 59.1644 20.3137C59.1644 19.1391 58.8288 17.7966 58.4371 17.0972H58.2133C57.542 19.4467 56.1435 20.8172 53.906 20.8172C50.9132 20.8172 49.235 18.8314 49.235 14.8877V12.5103C49.235 10.3287 48.9832 7.97921 48.6196 6.44092H54.2975C53.9339 7.97921 53.7102 9.99309 53.7102 12.1747V14.1325C53.7102 16.1462 54.4654 17.4051 55.8918 17.4051C57.3742 17.4051 58.3812 15.8947 58.3812 13.9649V12.1468C58.3812 10.5806 58.2133 7.72766 57.7658 6.44107H63.4716C63.0801 7.97935 62.8563 9.79747 62.8563 11.9791V17.5169C63.1919 18.44 63.5275 19.7546 63.5275 20.9573C63.5275 24.8729 59.8355 26.775 55.6961 26.775C53.5144 26.775 50.9414 26.4392 49.3471 25.8518Z" fill="black"/>
<path d="M66.8007 15.1394L65.9896 11.6152C65.6259 9.79733 65.0387 7.69948 64.4512 6.44092H69.7934C69.7095 7.47582 69.8213 9.09805 70.0731 10.6922L70.8285 13.9087C70.8839 14.2444 70.968 14.5519 71.0241 14.9156H71.2757L73.2894 6.44092H76.6179L78.6036 14.8877H78.8832C78.9393 14.5521 79.0234 14.2165 79.1075 13.8808L79.8343 10.6924C80.086 9.09805 80.1981 7.47582 80.114 6.44107H85.4562C84.8969 7.69962 84.2535 9.79747 83.9178 11.6154L83.1349 15.1396C82.7991 16.8737 82.5755 19.0553 82.6597 20.4258H76.9537L75.0795 12.7901H74.7998L72.9256 20.4258H67.248C67.3598 19.0832 67.1363 16.8736 66.8007 15.1394Z" fill="black"/>
<path d="M85.8472 15.867C85.8472 12.8743 87.4417 10.9163 90.1268 10.9163C92.1125 10.9163 93.4554 11.9512 94.0147 13.5454H94.2943V11.8673C94.2943 9.9373 92.8961 9.09819 91.106 9.09819C89.4834 9.09819 88.0291 9.62975 87.3015 10.3288V6.94459C88.3087 6.44124 90.3784 6.10547 92.0844 6.10547C95.4971 6.10547 98.5733 7.33614 98.5733 11.1121V14.3006C98.5733 16.9857 98.7696 19.0553 99.2167 20.426H93.8745C94.1261 19.9225 94.2943 19.1394 94.2943 18.3282V18.1324H94.0427C93.4827 19.7547 92.1405 20.7616 90.1268 20.7616C87.4417 20.7616 85.8472 18.8319 85.8472 15.867ZM94.2102 15.7271C94.2102 14.4686 93.4834 13.5175 92.1405 13.5175C90.8263 13.5175 90.0708 14.4125 90.0708 15.7271C90.0708 17.0418 90.8263 17.9648 92.1405 17.9648C93.4834 17.9648 94.2102 17.0418 94.2102 15.7271Z" fill="black"/>
<path d="M101.819 25.8518V21.908C103.162 22.9431 105.512 23.5863 107.413 23.5863C109.903 23.5863 111.637 22.3556 111.637 20.3137C111.637 19.1391 111.301 17.7966 110.909 17.0972H110.686C110.014 19.4467 108.616 20.8172 106.379 20.8172C103.386 20.8172 101.707 18.8314 101.707 14.8877V12.5103C101.707 10.3287 101.456 7.97921 101.092 6.44092H106.77C106.406 7.97921 106.182 9.99309 106.182 12.1747V14.1325C106.182 16.1462 106.938 17.4051 108.364 17.4051C109.847 17.4051 110.854 15.8947 110.854 13.9649V12.1468C110.854 10.5806 110.686 7.72766 110.238 6.44107H115.944C115.553 7.97935 115.329 9.79747 115.329 11.9791V17.5169C115.664 18.44 116 19.7546 116 20.9573C116 24.8729 112.308 26.775 108.169 26.775C105.987 26.775 103.414 26.4392 101.819 25.8518Z" fill="black"/>
<path d="M10.0429 8.18519C10.0429 6.69888 8.89631 6.04785 8.89631 4.7741C8.89631 3.64213 10.0449 2.66285 10.0449 1.36978C10.0449 0.48433 9.67515 0 9.67515 0L5.11509 0.00531095C5.11509 0.00531095 5.51282 0.746776 5.51282 1.48485C5.51282 2.54247 4.36624 2.94316 4.36624 4.80405C4.36624 6.54796 5.51474 6.92209 5.51474 8.31668C5.51474 9.55306 4.36817 10.6334 4.36817 11.8254C4.36817 13.3848 5.51622 13.873 5.51622 15.0799C5.51622 16.3815 4.47645 16.8528 3.62965 16.8528C1.80592 16.8528 0.972104 15.7774 0.885654 15.6313L0.352051 19.868C0.661414 19.9037 1.68274 20.8091 4.15661 20.8091C9.55725 20.8091 10.0768 16.7996 10.0768 15.625C10.0768 13.8811 8.90325 12.8878 8.90325 11.8731C8.90325 10.7734 10.0429 9.80678 10.0429 8.18519Z" fill="black"/>
</g>
<defs>
<clipPath id="clip0_434_126137">
<rect width="115.648" height="27.3349" fill="white" transform="translate(0.352539)"/>
</clipPath>
</defs>
</svg>
