<svg width="74" height="22" viewBox="0 0 74 22" fill="none" xmlns="http://www.w3.org/2000/svg">
<path d="M0.722662 2.7803C0.722662 1.64469 0.474892 0.818785 0 0.343894H6.5659C6.83432 0.343894 7.08209 0.385189 7.28856 0.467779C8.09382 0.880728 8.50677 2.11958 8.75454 2.90418C8.91972 3.42037 9.06425 3.91591 9.20878 4.3908C9.35331 4.86569 9.53914 5.52641 9.78691 6.33166C10.0347 7.13692 10.2824 7.92152 10.5302 8.66483C10.778 7.92152 11.0258 7.13692 11.2735 6.33166C11.5213 5.52641 11.7071 4.86569 11.8517 4.3908C11.9962 3.91591 12.1407 3.42037 12.3059 2.90418C12.5743 2.09893 12.9666 0.880728 13.7719 0.467779C13.9783 0.385189 14.2261 0.343894 14.4945 0.343894H21.0191C20.5442 0.818785 20.2965 1.64469 20.2965 2.7803V18.555C20.2965 19.6906 20.5442 20.5165 21.0191 20.9914H14.1022C14.5771 20.5165 14.8249 19.6906 14.8249 18.555V6.53814C14.8249 5.03087 14.5771 4.28756 14.0609 4.28756C13.4209 4.28756 12.4504 6.90979 11.1909 12.1336C11.0877 12.5672 10.9225 13.2279 10.716 14.1158C10.5096 15.0036 10.365 15.6643 10.2618 16.0566C10.1173 16.6554 9.74561 18.1007 9.41525 18.5756C9.27072 18.8027 9.10554 18.906 8.96101 18.906C8.85777 18.906 8.75454 18.844 8.6513 18.7202C7.94928 18.0181 6.87561 14.4668 6.5659 13.4344C6.23554 12.464 5.90518 11.4729 5.59547 10.4818C5.51288 10.234 5.38899 9.88303 5.24446 9.40814C5.07928 8.9539 4.93475 8.56159 4.81086 8.21059C4.41856 7.13692 4.00561 6.12519 3.46878 5.11346C3.32425 4.84505 3.17971 4.63857 3.05583 4.49404C2.9113 4.34951 2.78741 4.28756 2.68417 4.28756C2.16799 4.28756 1.92022 5.03087 1.92022 6.53814C1.92022 9.86238 3.15907 12.5672 4.9554 15.3133C5.40964 16.036 5.80194 16.7174 6.1323 17.3781C6.44202 18.0388 6.6072 18.6376 6.6072 19.1744C6.6072 20.4752 5.47158 20.9914 4.31533 20.9914H0C0.474892 20.5165 0.722662 19.6906 0.722662 18.555V2.7803Z" fill="#0B0B16"/>
<path d="M21.4339 20.9914C21.9088 20.5165 22.1565 19.6906 22.1565 18.555V2.7803C22.1565 1.64469 21.9088 0.818785 21.4339 0.343894H28.3508C27.8759 0.818785 27.6281 1.64469 27.6281 2.7803V18.555C27.6281 19.6906 27.8759 20.5165 28.3508 20.9914H21.4339Z" fill="#0B0B16"/>
<path d="M29.4961 2.7803C29.4961 1.64469 29.2483 0.818785 28.7734 0.343894H35.3393C35.6077 0.343894 35.8555 0.385189 36.062 0.467779C36.8672 0.880728 37.2802 2.11958 37.5279 2.90418C37.6931 3.42037 37.8377 3.91591 37.9822 4.3908C38.1267 4.86569 38.3125 5.52641 38.5603 6.33166C38.8081 7.13692 39.0559 7.92152 39.3036 8.66483C39.5514 7.92152 39.7992 7.13692 40.0469 6.33166C40.2947 5.52641 40.4805 4.86569 40.6251 4.3908C40.7696 3.91591 40.9141 3.42037 41.0793 2.90418C41.3477 2.09893 41.74 0.880728 42.5453 0.467779C42.7518 0.385189 42.9995 0.343894 43.2679 0.343894H49.7925C49.3177 0.818785 49.0699 1.64469 49.0699 2.7803V18.555C49.0699 19.6906 49.3177 20.5165 49.7925 20.9914H42.8756C43.3505 20.5165 43.5983 19.6906 43.5983 18.555V6.53814C43.5983 5.03087 43.3505 4.28756 42.8343 4.28756C42.1943 4.28756 41.2238 6.90979 39.9643 12.1336C39.8611 12.5672 39.6959 13.2279 39.4894 14.1158C39.283 15.0036 39.1384 15.6643 39.0352 16.0566C38.8907 16.6554 38.519 18.1007 38.1887 18.5756C38.0441 18.8027 37.8789 18.906 37.7344 18.906C37.6312 18.906 37.5279 18.844 37.4247 18.7202C36.7227 18.0181 35.649 14.4668 35.3393 13.4344C35.0089 12.464 34.6786 11.4729 34.3689 10.4818C34.2863 10.234 34.1624 9.88303 34.0179 9.40814C33.8527 8.9539 33.7082 8.56159 33.5843 8.21059C33.192 7.13692 32.779 6.12519 32.2422 5.11346C32.0976 4.84505 31.9531 4.63857 31.8292 4.49404C31.6847 4.34951 31.5608 4.28756 31.4576 4.28756C30.9414 4.28756 30.6936 5.03087 30.6936 6.53814C30.6936 9.86238 31.9325 12.5672 33.7288 15.3133C34.183 16.036 34.5753 16.7174 34.9057 17.3781C35.2154 18.0388 35.3806 18.6376 35.3806 19.1744C35.3806 20.4752 34.245 20.9914 33.0887 20.9914H28.7734C29.2483 20.5165 29.4961 19.6906 29.4961 18.555V2.7803Z" fill="#0B0B16"/>
<path d="M56.9796 1.43821C55.9679 1.43821 55.3898 2.59447 55.2453 4.92764C55.0801 7.36404 55.3691 10.1308 56.1331 13.2279C56.4841 14.6113 57.8881 19.8971 59.9116 19.8971C61.3569 19.8971 62.1209 18.3485 62.2035 15.272C62.2654 12.1956 61.7699 9.11908 60.6755 6.0426C59.5812 2.96612 58.363 1.43821 56.9796 1.43821ZM50.517 10.6676C50.517 7.46728 51.2603 4.90699 52.7469 2.94548C54.2335 1.00461 56.195 0.0341797 58.6521 0.0341797C61.0678 0.0341797 63.0294 1.00461 64.5366 2.94548C66.0232 4.90699 66.7666 7.46728 66.7666 10.6676C66.7666 13.868 66.0232 16.4283 64.5366 18.3692C63.0294 20.3307 61.0678 21.3011 58.6521 21.3011C56.195 21.3011 54.2335 20.3307 52.7469 18.3692C51.2603 16.4283 50.517 13.868 50.517 10.6676Z" fill="#0B0B16"/>
<path d="M67.6939 18.5963C67.6939 17.089 68.8915 15.9121 70.3987 15.9121C71.8854 15.9121 73.0829 17.1097 73.0829 18.5963C73.0829 20.1035 71.906 21.3011 70.3987 21.3011C68.8708 21.3011 67.6939 20.1242 67.6939 18.5963Z" fill="#0B0B16"/>
</svg>
