<svg width="85" height="27" viewBox="0 0 85 27" fill="none" xmlns="http://www.w3.org/2000/svg">
<g clip-path="url(#clip0_434_126147)">
<path fill-rule="evenodd" clip-rule="evenodd" d="M81.4405 13.8312C81.4213 16.5656 79.1988 18.7763 76.4599 18.7763C73.7091 18.7763 71.4791 16.5463 71.4791 13.7955C71.4791 11.0446 73.7091 8.81477 76.4599 8.81477C79.1988 8.81477 81.4213 11.0255 81.4405 13.7599V13.8312ZM81.4405 19.9513C80.0323 21.094 78.2733 21.7164 76.4599 21.7136C72.0868 21.7136 68.5418 18.1686 68.5418 13.7955C68.5418 9.42242 72.0868 5.87741 76.4599 5.87741C78.2734 5.87466 80.0324 6.49709 81.4405 7.63983V6.13283H84.3779V13.7506L84.378 13.7955L84.3779 13.8405V21.4582H81.4405V19.9513ZM61.5814 2.4292H60.1127V15.5196C60.1101 16.317 60.2653 17.107 60.5693 17.8441C60.8732 18.5813 61.32 19.251 61.8838 19.8149C62.4476 20.3787 63.1173 20.8255 63.8545 21.1294C64.5916 21.4334 65.3816 21.5886 66.179 21.5861H67.3926L67.3927 18.6487H66.179C64.436 18.6487 63.05 17.2628 63.05 15.5196V9.00634H67.3924V6.06898H63.05V2.4292H61.5814ZM56.0913 17.0519C55.178 18.108 53.8283 18.7763 52.3224 18.7763C49.5716 18.7763 47.3417 16.5463 47.3417 13.7955C47.3417 11.0446 49.5716 8.81477 52.3224 8.81477C53.8283 8.81477 55.178 9.48309 56.0913 10.5391L58.3141 8.61874C56.8622 6.93971 54.7164 5.87741 52.3224 5.87741C47.9493 5.87741 44.4043 9.42242 44.4043 13.7955C44.4043 18.1686 47.9493 21.7136 52.3224 21.7136C54.7164 21.7136 56.8622 20.6513 58.3141 18.9723L56.0913 17.0519Z" fill="#0B0B16"/>
<path fill-rule="evenodd" clip-rule="evenodd" d="M39.4235 18.7758C42.1743 18.7758 44.4042 16.5458 44.4042 13.7951C44.4042 11.0442 42.1743 8.81432 39.4235 8.81432C36.6727 8.81432 34.4427 11.0442 34.4427 13.7951C34.4427 16.5458 36.6727 18.7758 39.4235 18.7758ZM39.4235 21.7132C43.7966 21.7132 47.3416 18.1682 47.3416 13.7951C47.3416 9.42197 43.7966 5.87695 39.4235 5.87695C35.0504 5.87695 31.5054 9.42197 31.5054 13.7951C31.5054 18.1682 35.0504 21.7132 39.4235 21.7132Z" fill="#0B0B16"/>
<path d="M0.85498 13.6676C0.85498 3.15059 3.10909 0.896484 13.6261 0.896484C24.1432 0.896484 26.3973 3.15059 26.3973 13.6676C26.3973 24.1847 24.1432 26.4388 13.6261 26.4388C3.10909 26.4388 0.85498 24.1847 0.85498 13.6676Z" fill="#0B0B16"/>
<path opacity="0.35" fill-rule="evenodd" clip-rule="evenodd" d="M19.3631 11.4637C20.5444 9.87649 21.2878 8.38661 21.4646 7.22686C22.1926 7.2146 22.7654 7.40183 23.1233 7.81127C24.0792 8.90512 23.2572 11.3053 21.2441 13.9487C23.0679 16.726 23.7205 19.1777 22.6906 20.2022C22.305 20.5857 21.7206 20.7325 20.9951 20.6695C20.8997 19.5003 20.262 17.9622 19.1942 16.2964C18.6887 16.8085 18.1644 17.3017 17.6224 17.7749C13.1731 21.663 8.42254 23.506 7.01145 21.8913C6.6536 21.4818 6.54492 20.8892 6.65463 20.1693C8.79737 20.1331 12.2861 18.3705 15.6067 15.4685C16.2111 14.9409 16.7933 14.3886 17.3519 13.8128C16.8349 13.1994 16.2926 12.6077 15.7265 12.0393C12.6163 8.91291 9.25917 6.91103 7.12409 6.7256C7.06484 5.99981 7.21464 5.41617 7.6002 5.03265C9.12048 3.52029 13.731 5.69011 17.8981 9.87905C18.4058 10.389 18.8944 10.9176 19.3631 11.4637Z" fill="white"/>
<path fill-rule="evenodd" clip-rule="evenodd" d="M4.94184 19.5224L6.96262 21.8314C6.10517 20.7376 6.87616 18.4575 8.75658 15.9314C9.22502 16.4772 9.71346 17.0055 10.2209 17.5153C14.388 21.7042 18.9985 23.874 20.5188 22.3618C20.5675 22.3134 20.6123 22.2618 20.6535 22.2073L22.778 20.1159L22.7677 20.1185C22.7432 20.1472 22.7175 20.1747 22.6907 20.2014C21.1705 21.7137 16.56 19.5438 12.3929 15.3549C11.8269 14.7867 11.2848 14.1953 10.7678 13.5821C11.3262 13.0065 11.9082 12.4544 12.5123 11.927C16.9615 8.03895 21.7122 6.19595 23.1232 7.8106C23.148 7.83896 23.1716 7.8682 23.194 7.89834L23.2045 7.90179L21.2311 5.66748C21.1938 5.61001 21.1526 5.55547 21.1074 5.50388C19.6964 3.88922 14.9457 5.7321 10.4967 9.62015C9.95481 10.0933 9.43067 10.5864 8.92529 11.0983C7.22417 8.44469 6.61461 6.11498 7.54984 5.08473L5.37044 7.2497L5.37121 7.2525C4.42397 8.31072 5.08616 10.7217 6.87514 13.4461C4.90046 16.0389 4.07187 18.3979 4.94286 19.5196L4.94184 19.5224Z" fill="white"/>
</g>
<defs>
<clipPath id="clip0_434_126147">
<rect width="83.5233" height="25.5423" fill="white" transform="translate(0.85498 0.896484)"/>
</clipPath>
</defs>
</svg>
