<svg width="176" height="40" viewBox="0 0 176 40" fill="none" xmlns="http://www.w3.org/2000/svg">
<rect y="4" width="32" height="32" rx="10.6667" fill="#BAB9FF"/>
<path d="M11.4408 27.8496V28.5H10.7904V27.8496H11.4408ZM11.4408 27.1992V27.8496H10.7904V27.1992H11.4408ZM11.4408 26.5488V27.1992H10.7904V26.5488H11.4408ZM11.4408 25.8984V26.5488H10.7904V25.8984H11.4408ZM11.4408 25.248V25.8984H10.7904V25.248H11.4408ZM11.4408 24.5976V25.248H10.7904V24.5976H11.4408ZM11.4408 23.9472V24.5976H10.7904V23.9472H11.4408ZM11.4408 23.2967V23.9472H10.7904V23.2967H11.4408ZM11.4408 22.6463V23.2967H10.7904V22.6463H11.4408ZM11.4408 21.9959V22.6463H10.7904V21.9959H11.4408ZM11.4408 21.3455V21.9959H10.7904V21.3455H11.4408ZM11.4408 20.6951V21.3455H10.7904V20.6951H11.4408ZM11.4408 20.0447V20.6951H10.7904V20.0447H11.4408ZM11.4408 19.3943V20.0447H10.7904V19.3943H11.4408ZM11.4408 18.7439V19.3943H10.7904V18.7439H11.4408ZM12.0912 18.7439V19.3943H11.4408V18.7439H12.0912ZM12.0912 19.3943V20.0447H11.4408V19.3943H12.0912ZM12.0912 20.0447V20.6951H11.4408V20.0447H12.0912ZM12.0912 20.6951V21.3455H11.4408V20.6951H12.0912ZM12.0912 21.3455V21.9959H11.4408V21.3455H12.0912ZM12.0912 21.9959V22.6463H11.4408V21.9959H12.0912ZM12.0912 22.6463V23.2967H11.4408V22.6463H12.0912ZM12.7416 23.2967V23.9472H12.0912V23.2967H12.7416ZM12.7416 23.9472V24.5976H12.0912V23.9472H12.7416ZM12.7416 24.5976V25.248H12.0912V24.5976H12.7416ZM12.7416 25.248V25.8984H12.0912V25.248H12.7416ZM12.7416 25.8984V26.5488H12.0912V25.8984H12.7416ZM12.7416 26.5488V27.1992H12.0912V26.5488H12.7416ZM12.7416 27.1992V27.8496H12.0912V27.1992H12.7416ZM12.7416 27.8496V28.5H12.0912V27.8496H12.7416ZM13.392 27.8496V28.5H12.7416V27.8496H13.392ZM14.0424 27.8496V28.5H13.392V27.8496H14.0424ZM14.0424 25.248V25.8984H13.392V25.248H14.0424ZM14.0424 24.5976V25.248H13.392V24.5976H14.0424ZM14.0424 23.9472V24.5976H13.392V23.9472H14.0424ZM14.0424 23.2967V23.9472H13.392V23.2967H14.0424ZM13.392 23.2967V23.9472H12.7416V23.2967H13.392ZM13.392 22.6463V23.2967H12.7416V22.6463H13.392ZM13.392 23.9472V24.5976H12.7416V23.9472H13.392ZM13.392 24.5976V25.248H12.7416V24.5976H13.392ZM13.392 25.248V25.8984H12.7416V25.248H13.392ZM13.392 25.8984V26.5488H12.7416V25.8984H13.392ZM13.392 26.5488V27.1992H12.7416V26.5488H13.392ZM13.392 27.1992V27.8496H12.7416V27.1992H13.392ZM12.0912 27.8496V28.5H11.4408V27.8496H12.0912ZM12.0912 27.1992V27.8496H11.4408V27.1992H12.0912ZM12.0912 26.5488V27.1992H11.4408V26.5488H12.0912ZM12.0912 25.8984V26.5488H11.4408V25.8984H12.0912ZM12.0912 25.248V25.8984H11.4408V25.248H12.0912ZM12.0912 24.5976V25.248H11.4408V24.5976H12.0912ZM12.0912 23.9472V24.5976H11.4408V23.9472H12.0912ZM12.0912 23.2967V23.9472H11.4408V23.2967H12.0912ZM11.4408 12.2398V12.8902H10.7904V12.2398H11.4408ZM11.4408 12.8902V13.5406H10.7904V12.8902H11.4408ZM11.4408 13.5406V14.1911H10.7904V13.5406H11.4408ZM11.4408 14.1911V14.8415H10.7904V14.1911H11.4408ZM11.4408 14.8415V15.4919H10.7904V14.8415H11.4408ZM11.4408 15.4919V16.1423H10.7904V15.4919H11.4408ZM11.4408 16.1423V16.7927H10.7904V16.1423H11.4408ZM11.4408 16.7927V17.4431H10.7904V16.7927H11.4408ZM11.4408 17.4431V18.0935H10.7904V17.4431H11.4408ZM11.4408 18.0935V18.7439H10.7904V18.0935H11.4408ZM13.392 12.2398V12.8902H12.7416V12.2398H13.392ZM13.392 12.8902V13.5406H12.7416V12.8902H13.392ZM13.392 13.5406V14.1911H12.7416V13.5406H13.392ZM13.392 14.1911V14.8415H12.7416V14.1911H13.392ZM13.392 14.8415V15.4919H12.7416V14.8415H13.392ZM13.392 15.4919V16.1423H12.7416V15.4919H13.392ZM13.392 16.7927V17.4431H12.7416V16.7927H13.392ZM13.392 17.4431V18.0935H12.7416V17.4431H13.392ZM13.392 18.0935V18.7439H12.7416V18.0935H13.392ZM13.392 18.7439V19.3943H12.7416V18.7439H13.392ZM13.392 19.3943V20.0447H12.7416V19.3943H13.392ZM13.392 20.0447V20.6951H12.7416V20.0447H13.392ZM13.392 20.6951V21.3455H12.7416V20.6951H13.392ZM14.0424 21.3455V21.9959H13.392V21.3455H14.0424ZM14.0424 21.9959V22.6463H13.392V21.9959H14.0424ZM14.0424 22.6463V23.2967H13.392V22.6463H14.0424ZM14.0424 20.6951V21.3455H13.392V20.6951H14.0424ZM14.0424 20.0447V20.6951H13.392V20.0447H14.0424ZM14.0424 19.3943V20.0447H13.392V19.3943H14.0424ZM14.0424 18.7439V19.3943H13.392V18.7439H14.0424ZM14.0424 18.0935V18.7439H13.392V18.0935H14.0424ZM14.0424 17.4431V18.0935H13.392V17.4431H14.0424ZM14.0424 16.7927V17.4431H13.392V16.7927H14.0424ZM14.0424 16.1423V16.7927H13.392V16.1423H14.0424ZM14.0424 15.4919V16.1423H13.392V15.4919H14.0424ZM14.0424 14.8415V15.4919H13.392V14.8415H14.0424ZM13.392 16.1423V16.7927H12.7416V16.1423H13.392ZM14.0424 14.1911V14.8415H13.392V14.1911H14.0424ZM14.0424 13.5406V14.1911H13.392V13.5406H14.0424ZM14.0424 12.8902V13.5406H13.392V12.8902H14.0424ZM14.0424 12.2398V12.8902H13.392V12.2398H14.0424ZM12.7416 12.2398V12.8902H12.0912V12.2398H12.7416ZM12.0912 12.2398V12.8902H11.4408V12.2398H12.0912ZM12.0912 12.8902V13.5406H11.4408V12.8902H12.0912ZM12.7416 12.8902V13.5406H12.0912V12.8902H12.7416ZM12.7416 13.5406V14.1911H12.0912V13.5406H12.7416ZM12.7416 14.1911V14.8415H12.0912V14.1911H12.7416ZM12.7416 14.8415V15.4919H12.0912V14.8415H12.7416ZM12.7416 15.4919V16.1423H12.0912V15.4919H12.7416ZM12.7416 16.1423V16.7927H12.0912V16.1423H12.7416ZM12.7416 16.7927V17.4431H12.0912V16.7927H12.7416ZM12.0912 17.4431V18.0935H11.4408V17.4431H12.0912ZM12.0912 18.0935V18.7439H11.4408V18.0935H12.0912ZM12.0912 16.7927V17.4431H11.4408V16.7927H12.0912ZM12.0912 16.1423V16.7927H11.4408V16.1423H12.0912ZM12.0912 15.4919V16.1423H11.4408V15.4919H12.0912ZM12.0912 14.8415V15.4919H11.4408V14.8415H12.0912ZM12.0912 14.1911V14.8415H11.4408V14.1911H12.0912ZM12.0912 13.5406V14.1911H11.4408V13.5406H12.0912ZM12.7416 17.4431V18.0935H12.0912V17.4431H12.7416ZM12.7416 18.0935V18.7439H12.0912V18.0935H12.7416ZM12.7416 18.7439V19.3943H12.0912V18.7439H12.7416ZM12.7416 19.3943V20.0447H12.0912V19.3943H12.7416ZM12.7416 20.0447V20.6951H12.0912V20.0447H12.7416ZM12.7416 20.6951V21.3455H12.0912V20.6951H12.7416ZM12.7416 21.3455V21.9959H12.0912V21.3455H12.7416ZM12.7416 21.9959V22.6463H12.0912V21.9959H12.7416ZM12.7416 22.6463V23.2967H12.0912V22.6463H12.7416ZM13.392 21.9959V22.6463H12.7416V21.9959H13.392ZM13.392 21.3455V21.9959H12.7416V21.3455H13.392ZM14.6928 21.3455V21.9959H14.0424V21.3455H14.6928ZM15.3432 21.3455V21.9959H14.6928V21.3455H15.3432ZM15.3432 21.9959V22.6463H14.6928V21.9959H15.3432ZM14.6928 21.9959V22.6463H14.0424V21.9959H14.6928ZM14.6928 20.0447V20.6951H14.0424V20.0447H14.6928ZM15.3432 20.0447V20.6951H14.6928V20.0447H15.3432ZM14.6928 22.6463V23.2967H14.0424V22.6463H14.6928ZM15.3432 22.6463V23.2967H14.6928V22.6463H15.3432ZM15.3432 20.6951V21.3455H14.6928V20.6951H15.3432ZM14.6928 20.6951V21.3455H14.0424V20.6951H14.6928ZM14.6928 12.2398V12.8902H14.0424V12.2398H14.6928ZM15.3432 12.2398V12.8902H14.6928V12.2398H15.3432ZM15.3432 12.8902V13.5406H14.6928V12.8902H15.3432ZM14.6928 12.8902V13.5406H14.0424V12.8902H14.6928ZM14.6928 13.5406V14.1911H14.0424V13.5406H14.6928ZM15.3432 13.5406V14.1911H14.6928V13.5406H15.3432ZM15.3432 14.1911V14.8415H14.6928V14.1911H15.3432ZM14.6928 14.1911V14.8415H14.0424V14.1911H14.6928ZM14.6928 14.8415V15.4919H14.0424V14.8415H14.6928ZM15.3432 14.8415V15.4919H14.6928V14.8415H15.3432ZM15.9936 20.0447V20.6951H15.3432V20.0447H15.9936ZM16.6441 20.0447V20.6951H15.9936V20.0447H16.6441ZM17.2945 20.0447V20.6951H16.6441V20.0447H17.2945ZM17.9449 19.3943V20.0447H17.2945V19.3943H17.9449ZM18.5953 18.7439V19.3943H17.9449V18.7439H18.5953ZM18.5953 18.0935V18.7439H17.9449V18.0935H18.5953ZM18.5953 16.1423V16.7927H17.9449V16.1423H18.5953ZM17.9449 15.4919V16.1423H17.2945V15.4919H17.9449ZM17.2945 14.8415V15.4919H16.6441V14.8415H17.2945ZM16.6441 14.8415V15.4919H15.9936V14.8415H16.6441ZM15.9936 14.8415V15.4919H15.3432V14.8415H15.9936ZM15.9936 12.2398V12.8902H15.3432V12.2398H15.9936ZM16.6441 12.2398V12.8902H15.9936V12.2398H16.6441ZM17.2945 12.2398V12.8902H16.6441V12.2398H17.2945ZM17.9449 12.2398V12.8902H17.2945V12.2398H17.9449ZM17.9449 12.8902V13.5406H17.2945V12.8902H17.9449ZM17.9449 13.5406V14.1911H17.2945V13.5406H17.9449ZM17.9449 14.1911V14.8415H17.2945V14.1911H17.9449ZM17.2945 14.1911V14.8415H16.6441V14.1911H17.2945ZM17.2945 13.5406V14.1911H16.6441V13.5406H17.2945ZM16.6441 13.5406V14.1911H15.9936V13.5406H16.6441ZM15.9936 13.5406V14.1911H15.3432V13.5406H15.9936ZM15.9936 12.8902V13.5406H15.3432V12.8902H15.9936ZM16.6441 12.8902V13.5406H15.9936V12.8902H16.6441ZM17.2945 12.8902V13.5406H16.6441V12.8902H17.2945ZM15.9936 14.1911V14.8415H15.3432V14.1911H15.9936ZM16.6441 14.1911V14.8415H15.9936V14.1911H16.6441ZM17.9449 14.8415V15.4919H17.2945V14.8415H17.9449ZM18.5953 15.4919V16.1423H17.9449V15.4919H18.5953ZM18.5953 14.8415V15.4919H17.9449V14.8415H18.5953ZM18.5953 14.1911V14.8415H17.9449V14.1911H18.5953ZM18.5953 13.5406V14.1911H17.9449V13.5406H18.5953ZM18.5953 12.8902V13.5406H17.9449V12.8902H18.5953ZM18.5953 12.2398V12.8902H17.9449V12.2398H18.5953ZM18.5953 19.3943V20.0447H17.9449V19.3943H18.5953ZM18.5953 20.0447V20.6951H17.9449V20.0447H18.5953ZM18.5953 20.6951V21.3455H17.9449V20.6951H18.5953ZM18.5953 21.3455V21.9959H17.9449V21.3455H18.5953ZM17.9449 21.3455V21.9959H17.2945V21.3455H17.9449ZM17.2945 21.3455V21.9959H16.6441V21.3455H17.2945ZM16.6441 21.3455V21.9959H15.9936V21.3455H16.6441ZM15.9936 21.3455V21.9959H15.3432V21.3455H15.9936ZM15.9936 20.6951V21.3455H15.3432V20.6951H15.9936ZM16.6441 20.6951V21.3455H15.9936V20.6951H16.6441ZM17.2945 20.6951V21.3455H16.6441V20.6951H17.2945ZM17.9449 20.6951V21.3455H17.2945V20.6951H17.9449ZM17.9449 20.0447V20.6951H17.2945V20.0447H17.9449ZM15.9936 21.9959V22.6463H15.3432V21.9959H15.9936ZM16.6441 21.9959V22.6463H15.9936V21.9959H16.6441ZM17.2945 21.9959V22.6463H16.6441V21.9959H17.2945ZM17.9449 21.9959V22.6463H17.2945V21.9959H17.9449ZM18.5953 21.9959V22.6463H17.9449V21.9959H18.5953ZM18.5953 22.6463V23.2967H17.9449V22.6463H18.5953ZM17.9449 22.6463V23.2967H17.2945V22.6463H17.9449ZM17.2945 22.6463V23.2967H16.6441V22.6463H17.2945ZM16.6441 22.6463V23.2967H15.9936V22.6463H16.6441ZM15.9936 22.6463V23.2967H15.3432V22.6463H15.9936ZM19.2457 12.8902V13.5406H18.5953V12.8902H19.2457ZM19.8961 12.8902V13.5406H19.2457V12.8902H19.8961ZM19.8961 13.5406V14.1911H19.2457V13.5406H19.8961ZM20.5465 13.5406V14.1911H19.8961V13.5406H20.5465ZM20.5465 14.1911V14.8415H19.8961V14.1911H20.5465ZM20.5465 14.8415V15.4919H19.8961V14.8415H20.5465ZM21.1969 14.8415V15.4919H20.5465V14.8415H21.1969ZM21.1969 15.4919V16.1423H20.5465V15.4919H21.1969ZM21.1969 16.1423V16.7927H20.5465V16.1423H21.1969ZM21.1969 18.0935V18.7439H20.5465V18.0935H21.1969ZM21.1969 18.7439V19.3943H20.5465V18.7439H21.1969ZM21.1969 19.3943V20.0447H20.5465V19.3943H21.1969ZM21.1969 20.0447V20.6951H20.5465V20.0447H21.1969ZM20.5465 20.6951V21.3455H19.8961V20.6951H20.5465ZM19.8961 21.3455V21.9959H19.2457V21.3455H19.8961ZM19.2457 21.9959V22.6463H18.5953V21.9959H19.2457ZM19.8961 21.9959V22.6463H19.2457V21.9959H19.8961ZM19.2457 22.6463V23.2967H18.5953V22.6463H19.2457ZM19.2457 13.5406V14.1911H18.5953V13.5406H19.2457ZM19.2457 14.1911V14.8415H18.5953V14.1911H19.2457ZM19.2457 14.8415V15.4919H18.5953V14.8415H19.2457ZM19.2457 15.4919V16.1423H18.5953V15.4919H19.2457ZM19.2457 16.1423V16.7927H18.5953V16.1423H19.2457ZM19.2457 18.0935V18.7439H18.5953V18.0935H19.2457ZM19.2457 18.7439V19.3943H18.5953V18.7439H19.2457ZM19.2457 19.3943V20.0447H18.5953V19.3943H19.2457ZM19.2457 20.0447V20.6951H18.5953V20.0447H19.2457ZM19.2457 20.6951V21.3455H18.5953V20.6951H19.2457ZM19.2457 21.3455V21.9959H18.5953V21.3455H19.2457ZM19.8961 20.6951V21.3455H19.2457V20.6951H19.8961ZM19.8961 20.0447V20.6951H19.2457V20.0447H19.8961ZM19.8961 19.3943V20.0447H19.2457V19.3943H19.8961ZM19.8961 18.7439V19.3943H19.2457V18.7439H19.8961ZM19.8961 18.0935V18.7439H19.2457V18.0935H19.8961ZM19.8961 16.1423V16.7927H19.2457V16.1423H19.8961ZM19.8961 15.4919V16.1423H19.2457V15.4919H19.8961ZM19.8961 14.8415V15.4919H19.2457V14.8415H19.8961ZM19.8961 14.1911V14.8415H19.2457V14.1911H19.8961ZM20.5465 15.4919V16.1423H19.8961V15.4919H20.5465ZM20.5465 16.1423V16.7927H19.8961V16.1423H20.5465ZM20.5465 18.0935V18.7439H19.8961V18.0935H20.5465ZM20.5465 18.7439V19.3943H19.8961V18.7439H20.5465ZM20.5465 19.3943V20.0447H19.8961V19.3943H20.5465ZM20.5465 20.0447V20.6951H19.8961V20.0447H20.5465ZM14.0424 26.5488V27.1992H13.392V26.5488H14.0424ZM14.0424 27.1992V27.8496H13.392V27.1992H14.0424ZM14.0424 25.8984V26.5488H13.392V25.8984H14.0424ZM18.5953 16.7927V17.4431H17.9449V16.7927H18.5953ZM19.2457 16.7927V17.4431H18.5953V16.7927H19.2457ZM19.8961 16.7927V17.4431H19.2457V16.7927H19.8961ZM20.5465 16.7927V17.4431H19.8961V16.7927H20.5465ZM21.1969 16.7927V17.4431H20.5465V16.7927H21.1969ZM21.1969 17.4431V18.0935H20.5465V17.4431H21.1969ZM20.5465 17.4431V18.0935H19.8961V17.4431H20.5465ZM19.8961 17.4431V18.0935H19.2457V17.4431H19.8961ZM19.2457 17.4431V18.0935H18.5953V17.4431H19.2457ZM18.5953 17.4431V18.0935H17.9449V17.4431H18.5953ZM20.5465 21.9959V22.6463H19.8961V21.9959H20.5465ZM21.1969 22.6463V23.2967H20.5465V22.6463H21.1969ZM21.1969 23.2967V23.9472H20.5465V23.2967H21.1969ZM21.1969 23.9472V24.5976H20.5465V23.9472H21.1969ZM21.1969 24.5976V25.248H20.5465V24.5976H21.1969ZM21.1969 25.248V25.8984H20.5465V25.248H21.1969ZM21.1969 25.8984V26.5488H20.5465V25.8984H21.1969ZM21.1969 27.8496V28.5H20.5465V27.8496H21.1969ZM21.1969 27.1992V27.8496H20.5465V27.1992H21.1969ZM21.1969 26.5488V27.1992H20.5465V26.5488H21.1969ZM20.5465 27.8496V28.5H19.8961V27.8496H20.5465ZM19.8961 27.8496V28.5H19.2457V27.8496H19.8961ZM19.2457 27.8496V28.5H18.5953V27.8496H19.2457ZM19.2457 27.1992V27.8496H18.5953V27.1992H19.2457ZM19.2457 26.5488V27.1992H18.5953V26.5488H19.2457ZM19.2457 25.8984V26.5488H18.5953V25.8984H19.2457ZM19.2457 25.248V25.8984H18.5953V25.248H19.2457ZM19.8961 25.248V25.8984H19.2457V25.248H19.8961ZM19.8961 24.5976V25.248H19.2457V24.5976H19.8961ZM20.5465 24.5976V25.248H19.8961V24.5976H20.5465ZM20.5465 25.248V25.8984H19.8961V25.248H20.5465ZM20.5465 25.8984V26.5488H19.8961V25.8984H20.5465ZM20.5465 26.5488V27.1992H19.8961V26.5488H20.5465ZM20.5465 27.1992V27.8496H19.8961V27.1992H20.5465ZM19.8961 27.1992V27.8496H19.2457V27.1992H19.8961ZM19.8961 26.5488V27.1992H19.2457V26.5488H19.8961ZM19.8961 25.8984V26.5488H19.2457V25.8984H19.8961ZM18.5953 27.8496V28.5H17.9449V27.8496H18.5953ZM18.5953 27.1992V27.8496H17.9449V27.1992H18.5953ZM18.5953 26.5488V27.1992H17.9449V26.5488H18.5953ZM18.5953 25.8984V26.5488H17.9449V25.8984H18.5953ZM18.5953 25.248V25.8984H17.9449V25.248H18.5953ZM18.5953 24.5976V25.248H17.9449V24.5976H18.5953ZM18.5953 23.9472V24.5976H17.9449V23.9472H18.5953ZM18.5953 23.2967V23.9472H17.9449V23.2967H18.5953ZM19.2457 23.2967V23.9472H18.5953V23.2967H19.2457ZM19.8961 23.2967V23.9472H19.2457V23.2967H19.8961ZM20.5465 23.2967V23.9472H19.8961V23.2967H20.5465ZM20.5465 22.6463V23.2967H19.8961V22.6463H20.5465ZM19.8961 22.6463V23.2967H19.2457V22.6463H19.8961ZM19.8961 23.9472V24.5976H19.2457V23.9472H19.8961ZM19.2457 23.9472V24.5976H18.5953V23.9472H19.2457ZM19.2457 24.5976V25.248H18.5953V24.5976H19.2457ZM20.5465 23.9472V24.5976H19.8961V23.9472H20.5465Z" fill="black"/>
<path d="M45.6802 28H43.3602V10.1333H51.1468C54.6402 10.1333 57.2268 12.0533 57.2268 15.6267C57.2268 18.48 55.2802 20.2933 52.5335 20.6667C53.3602 20.9333 54.0268 21.4933 54.5868 22.48L57.7868 28H55.0668L51.9202 22.5067C51.2535 21.3067 50.2935 20.88 48.5335 20.88H45.6802V28ZM50.7735 12.1867H45.6802V18.9333H50.7735C52.9068 18.9333 54.8268 18.16 54.8268 15.6267C54.8268 12.96 52.9068 12.1867 50.7735 12.1867ZM62.6091 28.2667C60.4225 28.2667 59.1958 27.0133 59.1958 25.3067C59.1958 23.5733 60.5025 22.48 62.3425 21.6533L67.0091 19.5733C66.9291 18.0533 66.2091 16.9333 64.1825 16.9333C62.3425 16.9333 61.1158 18 60.4491 19.4133L58.8758 17.7867C59.6491 16.4533 61.5691 14.8267 64.4491 14.8267C67.6225 14.8267 69.3291 16.72 69.3291 19.7867V25.0933C69.3291 25.7067 69.5691 25.8933 70.0491 25.8933H70.8758V28H69.3825C68.0491 28 67.0891 27.36 67.0891 25.5467V24.64C66.6625 26.3467 65.2758 28.2667 62.6091 28.2667ZM61.5425 24.9333C61.5425 25.8133 62.1558 26.3467 63.3558 26.3467C65.5425 26.3467 67.0891 24.9067 67.0891 23.04V21.2533L63.3291 23.0133C62.1025 23.6 61.5425 24.1333 61.5425 24.9333ZM75.8822 28H73.5622V15.0933H75.8822V18.5333C76.3889 16.5333 77.7756 14.8267 80.3089 14.8267C82.8422 14.8267 84.4156 16.3467 84.4156 19.0933V28H82.1222V19.6533C82.1222 17.9733 81.4556 16.8 79.2689 16.8C76.7889 16.8 75.8822 18.5333 75.8822 20.6933V28ZM92.367 28.32C89.1137 28.32 87.087 25.6533 87.087 21.5733C87.087 17.4933 89.1137 14.8267 92.367 14.8267C94.847 14.8267 96.0737 16.48 96.527 18.4533V10.1333H98.847V28H96.527V24.6933C96.0737 26.6667 94.847 28.32 92.367 28.32ZM89.4337 21.5733C89.4337 24.88 91.1137 26.3733 93.1404 26.3733C95.6204 26.3733 96.527 24.64 96.527 22.5067V20.6667C96.527 18.5333 95.6204 16.8 93.1404 16.8C91.1137 16.8 89.4337 18.2933 89.4337 21.5733ZM107.538 28.2667C103.964 28.2667 101.458 25.6267 101.458 21.5467C101.458 17.4667 103.964 14.8267 107.538 14.8267C111.111 14.8267 113.644 17.4667 113.644 21.5467C113.644 25.6267 111.111 28.2667 107.538 28.2667ZM107.538 26.32C109.751 26.32 111.298 24.8 111.298 21.5467C111.298 18.2667 109.751 16.7733 107.538 16.7733C105.351 16.7733 103.831 18.2667 103.831 21.5467C103.831 24.8 105.351 26.32 107.538 26.32ZM118.877 28H116.557V15.0933H118.877V18.5333C119.384 16.5333 120.717 14.8 122.904 14.8C124.29 14.8 125.624 15.7867 125.624 17.6C125.624 18.6933 125.33 19.4933 125.117 19.8133H122.584C123.01 19.44 123.357 18.64 123.357 17.92C123.357 17.1733 122.957 16.5333 122.024 16.5333C120.37 16.5333 118.877 18.48 118.877 20.6933V28ZM130.343 28.2667C128.157 28.2667 126.93 27.0133 126.93 25.3067C126.93 23.5733 128.237 22.48 130.077 21.6533L134.743 19.5733C134.663 18.0533 133.943 16.9333 131.917 16.9333C130.077 16.9333 128.85 18 128.183 19.4133L126.61 17.7867C127.383 16.4533 129.303 14.8267 132.183 14.8267C135.357 14.8267 137.063 16.72 137.063 19.7867V25.0933C137.063 25.7067 137.303 25.8933 137.783 25.8933H138.61V28H137.117C135.783 28 134.823 27.36 134.823 25.5467V24.64C134.397 26.3467 133.01 28.2667 130.343 28.2667ZM129.277 24.9333C129.277 25.8133 129.89 26.3467 131.09 26.3467C133.277 26.3467 134.823 24.9067 134.823 23.04V21.2533L131.063 23.0133C129.837 23.6 129.277 24.1333 129.277 24.9333Z" fill="black"/>
</svg>
